<svg preserveAspectRatio="none" width="100%" height="100%" overflow="visible" style="display: block;" viewBox="0 0 16.875 19.375" fill="none" xmlns="http://www.w3.org/2000/svg">
<g id="Group">
<path id="Vector" fill-rule="evenodd" clip-rule="evenodd" d="M0.9375 8.255C0.9375 13.4625 7.2375 18.4375 8.4375 18.4375C9.6375 18.4375 15.9375 13.4625 15.9375 8.255C15.9375 4.21375 12.58 0.9375 8.4375 0.9375C4.295 0.9375 0.9375 4.2125 0.9375 8.255Z" stroke="var(--stroke-0, #484848)" stroke-opacity="0.8" stroke-width="1.875" stroke-linecap="round" stroke-linejoin="round"/>
<path id="Vector_2" d="M9.76333 9.13833C10.115 8.78669 10.3125 8.30978 10.3125 7.8125C10.3125 7.31522 10.115 6.83831 9.76333 6.48667C9.41169 6.13504 8.93478 5.9375 8.4375 5.9375C7.94022 5.9375 7.46331 6.13504 7.11167 6.48667C6.76004 6.83831 6.5625 7.31522 6.5625 7.8125C6.5625 8.30978 6.76004 8.78669 7.11167 9.13833C7.46331 9.48996 7.94022 9.6875 8.4375 9.6875C8.93478 9.6875 9.41169 9.48996 9.76333 9.13833Z" stroke="var(--stroke-0, #484848)" stroke-opacity="0.8" stroke-width="1.875" stroke-linecap="round" stroke-linejoin="round"/>
</g>
</svg>
