<svg preserveAspectRatio="none" width="100%" height="100%" overflow="visible" style="display: block;" viewBox="0 0 18 18" fill="none" xmlns="http://www.w3.org/2000/svg">
<g id="selfhst:bitcoin">
<g clip-path="url(#clip0_0_13)">
<path id="Vector" d="M16.7594 10.9344C15.6906 15.2187 11.35 17.8281 7.0625 16.7594C2.78125 15.6906 0.171875 11.35 1.24062 7.06563C2.30938 2.77813 6.65 0.171875 10.9344 1.24062C15.2188 2.30938 17.8281 6.65 16.7594 10.9344Z" fill="var(--fill-0, #F7931A)"/>
<path id="Vector_2" d="M12.5281 7.85938C12.6875 6.79375 11.8781 6.22187 10.7687 5.84062L11.1281 4.4L10.25 4.18125L9.9 5.58437C9.66875 5.52812 9.43125 5.47187 9.19687 5.41875L9.55 4.00625L8.67188 3.7875L8.3125 5.22813C8.12188 5.18438 7.93438 5.14063 7.75313 5.09688V5.09375L6.54375 4.79063L6.30937 5.72813C6.30937 5.72813 6.95938 5.87812 6.94688 5.8875C7.30313 5.975 7.36562 6.2125 7.35625 6.39687L6.94688 8.04063C6.97188 8.04688 7.00312 8.05625 7.0375 8.06875C7.00937 8.0625 6.97812 8.05313 6.94375 8.04688L6.36875 10.3469C6.325 10.4563 6.21562 10.6156 5.96562 10.5562C5.975 10.5687 5.32812 10.3969 5.32812 10.3969L4.89375 11.4031L6.0375 11.6875C6.25 11.7406 6.45937 11.7969 6.6625 11.85L6.3 13.3094L7.17812 13.5281L7.5375 12.0844C7.77812 12.15 8.00938 12.2094 8.2375 12.2656L7.87813 13.7031L8.75625 13.9219L9.11875 12.4656C10.6156 12.75 11.7406 12.6344 12.2156 11.2812C12.5969 10.1906 12.1969 9.5625 11.4094 9.15312C11.9812 9.01562 12.4125 8.64062 12.5281 7.85938ZM10.5219 10.6719C10.25 11.7625 8.41563 11.1719 7.82188 11.025L8.30312 9.09375C8.89687 9.24062 10.8063 9.53437 10.5219 10.6719ZM10.7937 7.84375C10.5469 8.83438 9.01875 8.33125 8.52187 8.20937L8.95938 6.45625C9.45625 6.58125 11.05 6.80938 10.7937 7.84375Z" fill="var(--fill-0, white)"/>
</g>
</g>
<defs>
<clipPath id="clip0_0_13">
<rect x="1" y="1" width="16" height="16" rx="8" fill="white"/>
</clipPath>
</defs>
</svg>
