<svg preserveAspectRatio="none" width="100%" height="100%" overflow="visible" style="display: block;" viewBox="0 0 16 16" fill="none" xmlns="http://www.w3.org/2000/svg">
<g id="Component 1">
<path id="Vector" d="M13.667 1.333H2.333C2.06778 1.333 1.81343 1.43836 1.62589 1.62589C1.43836 1.81343 1.333 2.06778 1.333 2.333V13.667C1.333 13.9322 1.43836 14.1866 1.62589 14.3741C1.81343 14.5616 2.06778 14.667 2.333 14.667H13.667C13.9322 14.667 14.1866 14.5616 14.3741 14.3741C14.5616 14.1866 14.667 13.9322 14.667 13.667V2.333C14.667 2.06778 14.5616 1.81343 14.3741 1.62589C14.1866 1.43836 13.9322 1.333 13.667 1.333ZM5.333 12.667H3.333V6.667H5.333V12.667ZM4.333 5.5C4.10371 5.49351 3.88141 5.4196 3.69389 5.28749C3.50636 5.15537 3.36193 4.97093 3.27865 4.7572C3.19536 4.54347 3.1769 4.30993 3.22559 4.08577C3.27428 3.86161 3.38794 3.65677 3.55239 3.49685C3.71684 3.33693 3.92477 3.22901 4.15019 3.18659C4.37562 3.14418 4.60856 3.16913 4.81988 3.25835C5.03121 3.34756 5.21155 3.49708 5.33839 3.68821C5.46522 3.87934 5.53291 4.10361 5.533 4.333C5.52773 4.6466 5.39857 4.94536 5.17372 5.16403C4.94887 5.38269 4.64662 5.50348 4.333 5.5ZM12.667 12.667H10.667V9.507C10.667 8.56 10.267 8.22 9.747 8.22C9.59454 8.23015 9.44559 8.27032 9.3087 8.33821C9.17181 8.40609 9.04968 8.50035 8.94932 8.61557C8.84897 8.73079 8.77237 8.86471 8.72392 9.00962C8.67547 9.15453 8.65612 9.30759 8.667 9.46C8.66338 9.49089 8.66338 9.52211 8.667 9.553V12.667H6.667V6.667H8.6V7.533C8.79483 7.23617 9.06273 6.99444 9.37796 6.83104C9.69318 6.66765 10.0451 6.58809 10.4 6.6C11.433 6.6 12.64 7.173 12.64 9.04L12.667 12.667Z" fill="var(--fill-0, #141414)" fill-opacity="0.36"/>
</g>
</svg>
