<svg preserveAspectRatio="none" width="100%" height="100%" overflow="visible" style="display: block;" viewBox="0 0 16 16" fill="none" xmlns="http://www.w3.org/2000/svg">
<g id="Component 1" clip-path="url(#clip0_0_112)">
<path id="Vector" fill-rule="evenodd" clip-rule="evenodd" d="M9.394 12.674C8.79 13.882 8.216 14.094 8 14.094C7.784 14.094 7.21 13.882 6.606 12.674C6.115 11.692 5.756 10.306 5.674 8.704H10.326C10.244 10.306 9.886 11.692 9.394 12.674ZM10.326 7.297H5.674C5.756 5.694 6.114 4.308 6.606 3.326C7.21 2.118 7.784 1.906 8 1.906C8.216 1.906 8.79 2.118 9.394 3.326C9.885 4.308 10.244 5.695 10.326 7.297ZM11.734 8.702C11.644 10.617 11.196 12.324 10.524 13.548C11.4798 13.1125 12.307 12.4376 12.9254 11.5886C13.5439 10.7396 13.9326 9.74532 14.054 8.702H11.734ZM14.054 7.296H11.734C11.644 5.381 11.196 3.674 10.524 2.451C11.4797 2.8864 12.3068 3.56117 12.9252 4.40997C13.5436 5.25877 13.9324 6.25286 14.054 7.296ZM4.266 7.296C4.356 5.381 4.804 3.674 5.476 2.451C4.52031 2.8864 3.69322 3.56117 3.07479 4.40997C2.45637 5.25877 2.06756 6.25286 1.946 7.296H4.266ZM1.946 8.702C2.06739 9.74532 2.45613 10.7396 3.07456 11.5886C3.693 12.4376 4.52018 13.1125 5.476 13.548C4.804 12.324 4.356 10.618 4.266 8.702H1.946ZM15.5 8C15.5 7.01509 15.306 6.03982 14.9291 5.12987C14.5522 4.21993 13.9997 3.39314 13.3033 2.6967C12.6069 2.00026 11.7801 1.44781 10.8701 1.0709C9.96018 0.693993 8.98491 0.5 8 0.5C7.01509 0.5 6.03982 0.693993 5.12987 1.0709C4.21993 1.44781 3.39314 2.00026 2.6967 2.6967C2.00026 3.39314 1.44781 4.21993 1.0709 5.12987C0.693993 6.03982 0.5 7.01509 0.5 8C0.5 9.98912 1.29018 11.8968 2.6967 13.3033C4.10322 14.7098 6.01088 15.5 8 15.5C9.98912 15.5 11.8968 14.7098 13.3033 13.3033C14.7098 11.8968 15.5 9.98912 15.5 8Z" fill="var(--fill-0, #141414)" fill-opacity="0.36"/>
</g>
<defs>
<clipPath id="clip0_0_112">
<rect width="16" height="16" fill="white"/>
</clipPath>
</defs>
</svg>
