<svg width="51.7745" height="14.0281" overflow="visible" style="display: block;" viewBox="0 0 51.7745 14.0281" fill="none" xmlns="http://www.w3.org/2000/svg">
<g id="Group">
<path id="Vector" d="M11.444 0H2.58413C1.15695 0 0 1.15695 0 2.58413V11.444C0 12.8712 1.15695 14.0281 2.58413 14.0281H11.444C12.8712 14.0281 14.0281 12.8712 14.0281 11.444V2.58413C14.0281 1.15695 12.8712 0 11.444 0Z" fill="var(--fill-0, #00F3AB)"/>
<path id="Vector_2" d="M3.69161 3.69161H5.75175V5.54406C5.75175 7.86262 7.35941 8.3048 8.062 8.3048C9.02422 8.24743 9.97928 8.71114 10.3365 8.95017L8.062 10.3365C5.00154 10.2767 3.69161 7.77893 3.69161 6.04601V3.69161Z" fill="var(--fill-0, #010101)"/>
<path id="Vector_3" d="M10.3246 3.69161H8.05011V8.31676C9.89828 8.19246 10.3365 6.72723 10.3246 6.01017V3.69161Z" fill="var(--fill-0, #010101)"/>
<path id="Vector_4" d="M21.7165 9.88023C20.9098 9.88023 20.279 9.65552 19.8242 9.20614C19.3694 8.75676 19.142 8.11516 19.142 7.28134V4.09769H20.4577V7.23261C20.4577 7.77406 20.5687 8.16389 20.7906 8.40211C21.0127 8.64033 21.324 8.75946 21.7246 8.75946C22.1253 8.75946 22.4366 8.64033 22.6586 8.40211C22.8806 8.16389 22.9916 7.77406 22.9916 7.23261V4.09769H24.291V7.28134C24.291 8.11516 24.0636 8.75676 23.6088 9.20614C23.154 9.65552 22.5233 9.88023 21.7165 9.88023ZM25.4125 9.78277V5.41338H26.6226V6.62349L26.3952 6.25802C26.5522 5.96565 26.7769 5.74094 27.0693 5.58393C27.3617 5.42693 27.6947 5.34841 28.0683 5.34841C28.4148 5.34841 28.7234 5.41881 28.9941 5.55957C29.2702 5.69494 29.4868 5.9061 29.6438 6.19305C29.8008 6.47461 29.8794 6.83735 29.8794 7.28134V9.78277H28.6124V7.47625C28.6124 7.12433 28.5339 6.86444 28.3769 6.69659C28.2253 6.52873 28.0087 6.44482 27.7271 6.44482C27.5268 6.44482 27.3454 6.48812 27.183 6.57476C27.026 6.65598 26.9014 6.78323 26.8094 6.95647C26.7228 7.12972 26.6795 7.35174 26.6795 7.62244V9.78277H25.4125ZM30.9384 9.78277V5.41338H32.2054V9.78277H30.9384ZM31.5719 4.80426C31.3391 4.80426 31.1496 4.7366 31.0034 4.60123C30.8572 4.46585 30.7841 4.29803 30.7841 4.09769C30.7841 3.89735 30.8572 3.72953 31.0034 3.59415C31.1496 3.45879 31.3391 3.39112 31.5719 3.39112C31.8048 3.39112 31.9942 3.45609 32.1404 3.58603C32.2866 3.71055 32.3597 3.87298 32.3597 4.07333C32.3597 4.28449 32.2866 4.46046 32.1404 4.60123C31.9997 4.7366 31.8102 4.80426 31.5719 4.80426ZM36.102 9.88023C35.6634 9.88023 35.2546 9.80983 34.8756 9.66907C34.502 9.52288 34.1772 9.31715 33.901 9.05183C33.6249 8.78652 33.4084 8.4752 33.2513 8.11786C33.0997 7.76051 33.0239 7.36798 33.0239 6.94023C33.0239 6.51248 33.0997 6.11996 33.2513 5.76261C33.4084 5.40526 33.6249 5.09395 33.901 4.82863C34.1826 4.56331 34.5102 4.36027 34.8837 4.21951C35.2573 4.07333 35.6661 4.00023 36.1101 4.00023C36.6028 4.00023 37.0468 4.08687 37.4422 4.26012C37.8427 4.42798 38.1783 4.67701 38.4493 5.0073L37.6046 5.78697C37.4097 5.565 37.193 5.39983 36.9549 5.29156C36.7165 5.17786 36.4566 5.121 36.1751 5.121C35.9098 5.121 35.6661 5.16431 35.4441 5.25095C35.2222 5.33759 35.0299 5.46211 34.8675 5.62454C34.7051 5.78697 34.5779 5.97919 34.4858 6.20117C34.3992 6.42315 34.3558 6.66953 34.3558 6.94023C34.3558 7.21094 34.3992 7.45732 34.4858 7.67929C34.5779 7.90127 34.7051 8.09349 34.8675 8.25592C35.0299 8.41835 35.2222 8.54287 35.4441 8.62951C35.6661 8.71616 35.9098 8.75946 36.1751 8.75946C36.4566 8.75946 36.7165 8.7053 36.9549 8.59703C37.193 8.48333 37.4097 8.31277 37.6046 8.08537L38.4493 8.86504C38.1783 9.19533 37.8427 9.4471 37.4422 9.62034C37.0468 9.79359 36.6001 9.88023 36.102 9.88023ZM41.7359 9.78277V8.93001L41.6547 8.74322V7.21636C41.6547 6.94566 41.5709 6.7345 41.4029 6.58288C41.2405 6.43127 40.9887 6.35548 40.6476 6.35548C40.4147 6.35548 40.1847 6.39339 39.9573 6.46918C39.7354 6.53958 39.5457 6.63704 39.3888 6.76156L38.934 5.87631C39.1721 5.70845 39.4593 5.57851 39.7948 5.48647C40.1304 5.39444 40.4715 5.34841 40.8182 5.34841C41.4841 5.34841 42.0013 5.50541 42.3694 5.81946C42.7374 6.1335 42.9216 6.62349 42.9216 7.28946V9.78277H41.7359ZM40.404 9.84775C40.0629 9.84775 39.7705 9.7909 39.5268 9.67719C39.2832 9.55807 39.0964 9.39837 38.9664 9.19802C38.8365 8.99768 38.7715 8.77301 38.7715 8.52393C38.7715 8.26404 38.8339 8.03664 38.9583 7.84172C39.0883 7.64681 39.2913 7.49519 39.5674 7.38692C39.8436 7.27322 40.2035 7.21636 40.6476 7.21636H41.809V7.95542H40.7857C40.4878 7.95542 40.2821 8.00415 40.1684 8.10161C40.0603 8.19907 40.006 8.3209 40.006 8.46708C40.006 8.62951 40.0684 8.75946 40.1928 8.85692C40.3227 8.94895 40.4988 8.99498 40.7207 8.99498C40.9319 8.99498 41.1212 8.94625 41.2892 8.8488C41.4572 8.74591 41.579 8.59703 41.6547 8.40211L41.8496 8.98686C41.7577 9.26842 41.5897 9.48228 41.3461 9.62846C41.1024 9.77465 40.7883 9.84775 40.404 9.84775ZM43.9789 9.78277V5.41338H45.189V6.64786L45.0185 6.29051C45.1484 5.98189 45.357 5.74906 45.6438 5.59205C45.931 5.42962 46.2803 5.34841 46.6915 5.34841V6.51791C46.6376 6.51248 46.5889 6.50979 46.5453 6.50979C46.5021 6.50436 46.456 6.50167 46.4073 6.50167C46.061 6.50167 45.7793 6.60182 45.5626 6.80217C45.3515 6.99708 45.2459 7.30301 45.2459 7.7199V9.78277H43.9789ZM49.2 9.84775C48.7883 9.84775 48.4177 9.75571 48.0873 9.57161C47.7569 9.38212 47.4944 9.1195 47.2995 8.78382C47.1101 8.44815 47.0153 8.05288 47.0153 7.59808C47.0153 7.13784 47.1101 6.73989 47.2995 6.40421C47.4944 6.06853 47.7569 5.80864 48.0873 5.62454C48.4177 5.44044 48.7883 5.34841 49.2 5.34841C49.568 5.34841 49.8903 5.42962 50.1664 5.59205C50.4426 5.75449 50.6563 6.00083 50.808 6.33112C50.9598 6.6614 51.0354 7.08373 51.0354 7.59808C51.0354 8.10704 50.9623 8.52936 50.8162 8.86504C50.67 9.19533 50.4588 9.44167 50.1827 9.6041C49.9121 9.76653 49.5843 9.84775 49.2 9.84775ZM49.4192 8.80819C49.6249 8.80819 49.8117 8.75946 49.9796 8.662C50.1476 8.56454 50.2801 8.42647 50.3776 8.2478C50.4806 8.0637 50.5319 7.84715 50.5319 7.59808C50.5319 7.34361 50.4806 7.12703 50.3776 6.94835C50.2801 6.76968 50.1476 6.63161 49.9796 6.53415C49.8117 6.4367 49.6249 6.38797 49.4192 6.38797C49.2081 6.38797 49.0187 6.4367 48.8507 6.53415C48.6828 6.63161 48.5477 6.76968 48.4447 6.94835C48.3472 7.12703 48.2985 7.34361 48.2985 7.59808C48.2985 7.84715 48.3472 8.0637 48.4447 8.2478C48.5477 8.42647 48.6828 8.56454 48.8507 8.662C49.0187 8.75946 49.2081 8.80819 49.4192 8.80819ZM50.5644 9.78277V8.8894L50.5888 7.58996L50.5075 6.29863V3.75658H51.7745V9.78277H50.5644Z" fill="var(--fill-0, #0E0E0E)"/>
</g>
</svg>
